<?xml version="1.0" encoding="UTF-8"?>
<svg id="Ebene_2" data-name="Ebene 2" xmlns="http://www.w3.org/2000/svg" viewBox="0 0 350.47 350.56">
  <defs>
    <style>
      .cls-1 {
        fill: #fefefe;
      }

      .cls-1, .cls-2, .cls-3 {
        stroke-width: 0px;
      }

      .cls-2 {
        fill: #0b0c0c;
      }

      .cls-3 {
        fill: #e62b32;
      }
    </style>
  </defs>
  <g id="Phone">
    <g>
      <path class="cls-2" d="M0,175.22C-.36,79.86,76.83,1.5,172.28.02c97.54-1.51,175.16,76,178.1,169.33,3.13,99.4-75.52,178.19-169.37,181.13C80.73,353.62-.51,272.69,0,175.22ZM175.18,2.65C80.1,2.48,2.02,80.41,2.55,176.25c.52,93.72,76.49,170.71,170.91,171.66,96.48.96,175.41-77.73,174.37-174.56C346.82,78.71,269.32,2.5,175.18,2.65Z"/>
      <path class="cls-1" d="M175.18,2.65c94.14-.15,171.64,76.06,172.66,170.7,1.04,96.82-77.89,175.52-174.37,174.56C79.04,346.97,3.06,269.97,2.55,176.25,2.02,80.41,80.1,2.48,175.18,2.65ZM6.36,175.23c.09,93.38,75.68,168.95,168.96,168.9,93.13-.05,168.8-75.82,168.74-168.96-.06-93.55-75.79-169.01-169.89-168.66C81.42,6.84,6.5,82.09,6.36,175.23Z"/>
      <path class="cls-3" d="M6.36,175.23C6.5,82.09,81.42,6.84,174.17,6.5c94.1-.35,169.83,75.12,169.89,168.66.06,93.15-75.61,168.91-168.74,168.96-93.28.05-168.87-75.52-168.96-168.9ZM224.73,240.98c-2.12-2.15-4.22-4.31-6.35-6.44-23.07-23.08-46.15-46.15-69.23-69.22-7.76-7.75-15.54-15.47-23.32-23.2-2.58-2.99-5.43-5.71-8.32-8.39-1.1-1.11-2.2-2.23-3.31-3.34-14.75-14.76-29.52-29.49-44.22-44.3-1.31-1.32-1.85-1.08-2.89.23-28.15,35.45-38.18,75.48-28.34,119.6,9.51,42.63,34.53,74.11,73.32,94.21,27.45,14.22,56.71,18.21,87.14,13.05,24.39-4.13,46.06-14.36,65.2-30.02,1.07-.88,1.31-1.39.16-2.47-3.04-2.86-5.94-5.87-8.9-8.82-7.54-7.5-15.07-15.01-22.61-22.51-2.58-3-5.41-5.74-8.35-8.39ZM125.7,109.7c.85.89,1.69,1.8,2.56,2.67,23.25,23.26,46.5,46.52,69.76,69.76,8.84,8.83,17.71,17.62,26.57,26.42,2.59,2.95,5.4,5.69,8.3,8.34,15.86,15.88,31.73,31.75,47.54,47.68,1.19,1.2,1.7,1.07,2.69-.16,25.49-31.69,35.98-67.78,30.72-108.06-4.32-33.12-19.04-61.31-43.7-83.82-31.86-29.08-69.57-41.07-112.43-36.11-26.93,3.12-50.74,13.82-71.74,30.91-1.4,1.14-1.07,1.69,0,2.75,8.1,8.02,16.13,16.1,24.2,24.14,2.38,2.37,4.8,4.69,7.2,7.03,2.55,3.03,5.43,5.75,8.34,8.43Z"/>
      <path class="cls-1" d="M117.37,101.27c-2.4-2.34-4.83-4.66-7.2-7.03-8.07-8.05-16.11-16.12-24.2-24.14-1.06-1.05-1.39-1.61,0-2.75,21-17.09,44.81-27.8,71.74-30.91,42.86-4.96,80.57,7.03,112.43,36.11,24.67,22.51,39.38,50.7,43.7,83.82,5.26,40.28-5.22,76.37-30.72,108.06-.99,1.23-1.5,1.36-2.69.16-15.81-15.93-31.69-31.8-47.54-47.68.03-.75.07-1.51.07-2.26,0-40.49,0-80.97,0-121.46,0-1.92.05-3.84-.02-5.76-.32-9.16-7.78-16.38-16.94-16.39-27.17,0-54.35,0-81.52,0-9.59,0-17.01,7.46-17.05,17.08-.02,4.39-.05,8.78-.08,13.17ZM277.28,170.83c-.07-1.21-.14-2.64-.26-4.07-.96-12.33-5.55-23.05-14.22-31.95-2.16-2.22-2.18-2.2-4.28.17-.77.87-1.48,1.81-2.32,2.61-.86.82-.71,1.32.1,2.12,16.13,15.91,17.37,42.26,2.89,59.62-1.19,1.43-3.72,2.45-3.42,4.19.27,1.61,2.43,2.84,3.54,4.39.98,1.38,1.58,1.1,2.63.08,10.41-10.12,14.98-22.63,15.34-37.15ZM260.55,174.7c0-14.26-3.55-23.98-10.03-31.12q-3.11-3.42-6.08-.01c-.09.1-.17.22-.28.3-1,.83-.89,1.42.06,2.38,12.82,12.85,13.51,34.09,1.65,47.81-.86.99-2.65,1.71-2.42,2.98.22,1.16,1.7,2.06,2.52,3.16.89,1.2,1.5,1.31,2.66.14,8.09-8.09,11.76-17.93,11.9-25.63Z"/>
      <path class="cls-1" d="M233.07,249.37c7.54,7.5,15.08,15,22.61,22.51,2.96,2.95,5.86,5.96,8.9,8.82,1.14,1.07.91,1.59-.16,2.47-19.14,15.65-40.81,25.88-65.2,30.02-30.43,5.16-59.69,1.17-87.14-13.05-38.79-20.1-63.81-51.58-73.32-94.21-9.84-44.12.19-84.16,28.34-119.6,1.04-1.31,1.57-1.55,2.89-.23,14.7,14.81,29.47,29.54,44.22,44.3,1.11,1.11,2.21,2.23,3.31,3.34-.02.82-.06,1.64-.06,2.47,0,41.93,0,83.86,0,125.78,0,10.15,7.33,17.56,17.43,17.56,26.9,0,53.8,0,80.7,0,9.97,0,17.34-7.41,17.39-17.42.02-4.25.07-8.5.1-12.75ZM73.12,171.54c.09,1.31.14,3.23.35,5.13,1.3,11.98,6.01,22.36,14.55,30.96,1.3,1.31,2.2,1.76,3.38-.09.73-1.14,1.7-2.16,2.69-3.1.9-.87.87-1.34-.08-2.25-17.21-16.67-17.23-45.56-.04-62.41.86-.84,1.15-1.32.16-2.24-1-.93-1.97-1.95-2.68-3.1-1.24-2-2.2-1.34-3.49-.04-10.05,10.11-14.57,22.44-14.84,37.14ZM89.82,167.75c-.02,13.48,3.14,22.66,9.94,30.5,3.15,3.63,3.12,3.55,6.37-.03,1.06-1.16.86-1.69-.15-2.7-12.65-12.63-13.28-34.33-1.44-47.68.85-.96,2.51-1.99,2.42-2.83-.13-1.12-1.69-2.04-2.48-3.15-1.01-1.43-1.76-1.34-2.96-.1-7.9,8.12-11.65,17.88-11.71,25.99Z"/>
      <path class="cls-1" d="M224.59,208.56c-8.86-8.81-17.73-17.6-26.57-26.42-23.26-23.24-46.51-46.5-69.76-69.76-.87-.87-1.71-1.78-2.56-2.67.02-6.86.11-13.73,0-20.59-.03-1.9.5-2.33,2.36-2.33,31.3.06,62.6.05,93.89.04,2.72,0,2.71-.02,2.71,2.72,0,24.64,0,49.28,0,73.92,0,15.03-.05,30.06-.07,45.09Z"/>
      <path class="cls-1" d="M125.83,142.12c7.77,7.73,15.56,15.45,23.32,23.2,23.08,23.06,46.16,46.14,69.23,69.22,2.13,2.13,4.23,4.29,6.35,6.44-.02,1.51-.18,3.03-.03,4.52.17,1.73-.41,2.13-2.13,2.13-31.51-.06-63.01-.06-94.52,0-1.89,0-2.34-.48-2.33-2.34.06-33.64.04-67.27.05-100.91,0-.75.04-1.51.07-2.26Z"/>
      <path class="cls-2" d="M125.83,142.12c-.02.75-.07,1.51-.07,2.26,0,33.64.01,67.27-.05,100.91,0,1.86.45,2.35,2.33,2.34,31.51-.06,63.01-.06,94.52,0,1.71,0,2.3-.39,2.13-2.13-.15-1.49,0-3.01.03-4.52,2.93,2.65,5.76,5.4,8.35,8.39-.03,4.25-.08,8.5-.1,12.75-.05,10.01-7.43,17.41-17.39,17.42-26.9,0-53.8,0-80.7,0-10.1,0-17.43-7.41-17.43-17.56,0-41.93,0-83.86,0-125.78,0-.82.04-1.64.06-2.47,2.89,2.68,5.74,5.4,8.32,8.39ZM175.41,258.04c-2.68,0-5.35-.02-8.03,0-2.37.03-3.63,1.3-3.68,3.7-.03,1.72-.04,3.43,0,5.15.05,2.28,1.28,3.63,3.55,3.66,5.28.07,10.57.07,15.86,0,2.24-.03,3.53-1.4,3.6-3.64.06-1.65.03-3.29,0-4.94-.04-2.63-1.3-3.91-3.9-3.93-2.47-.02-4.94,0-7.41,0Z"/>
      <path class="cls-2" d="M224.59,208.56c.03-15.03.07-30.06.07-45.09.01-24.64,0-49.28,0-73.92,0-2.74,0-2.72-2.71-2.72-31.3,0-62.6.02-93.89-.04-1.86,0-2.39.43-2.36,2.33.11,6.86.01,13.72,0,20.59-2.91-2.68-5.79-5.39-8.34-8.43.03-4.39.06-8.78.08-13.17.04-9.62,7.46-17.07,17.05-17.08,27.17,0,54.35,0,81.52,0,9.16,0,16.62,7.23,16.94,16.39.07,1.92.02,3.84.02,5.76,0,40.49,0,80.97,0,121.46,0,.75-.05,1.51-.07,2.26-2.9-2.65-5.71-5.39-8.3-8.34ZM175.29,76.85c-3.43,0-6.86.02-10.29,0-1.2,0-2.21.05-2.18,1.68.04,1.49.99,1.59,2.1,1.59,6.86,0,13.72,0,20.58,0,1.14,0,2.05-.18,2.09-1.62.03-1.45-.83-1.66-2.01-1.65-3.43.03-6.86.01-10.29,0Z"/>
      <path class="cls-2" d="M277.28,170.83c-.37,14.52-4.93,27.03-15.34,37.15-1.06,1.03-1.65,1.3-2.63-.08-1.11-1.55-3.27-2.78-3.54-4.39-.29-1.74,2.23-2.76,3.42-4.19,14.49-17.36,13.25-43.71-2.89-59.62-.81-.8-.96-1.3-.1-2.12.84-.8,1.55-1.74,2.32-2.61,2.1-2.37,2.12-2.39,4.28-.17,8.66,8.9,13.26,19.62,14.22,31.95.11,1.43.18,2.87.26,4.07Z"/>
      <path class="cls-2" d="M260.55,174.7c-.13,7.7-3.8,17.54-11.9,25.63-1.17,1.17-1.78,1.05-2.66-.14-.81-1.1-2.3-1.99-2.52-3.16-.23-1.26,1.56-1.98,2.42-2.98,11.85-13.71,11.16-34.96-1.65-47.81-.96-.96-1.07-1.55-.06-2.38.1-.09.19-.2.28-.3q2.97-3.41,6.08.01c6.48,7.13,10.02,16.86,10.03,31.12Z"/>
      <path class="cls-2" d="M73.12,171.54c.27-14.69,4.79-27.02,14.84-37.14,1.29-1.3,2.25-1.97,3.49.04.71,1.15,1.69,2.17,2.68,3.1.99.92.7,1.4-.16,2.24-17.19,16.85-17.18,45.74.04,62.41.94.91.98,1.38.08,2.25-.99.95-1.96,1.96-2.69,3.1-1.18,1.85-2.08,1.39-3.38.09-8.54-8.6-13.25-18.98-14.55-30.96-.21-1.9-.26-3.82-.35-5.13Z"/>
      <path class="cls-2" d="M89.82,167.75c.06-8.12,3.81-17.87,11.71-25.99,1.2-1.23,1.95-1.33,2.96.1.79,1.11,2.35,2.03,2.48,3.15.1.84-1.56,1.87-2.42,2.83-11.84,13.34-11.21,35.05,1.44,47.68,1.01,1.01,1.21,1.54.15,2.7-3.25,3.58-3.22,3.67-6.37.03-6.8-7.84-9.97-17.02-9.94-30.5Z"/>
      <path class="cls-1" d="M175.41,258.04c2.47,0,4.94-.02,7.41,0,2.6.02,3.86,1.3,3.9,3.93.02,1.65.05,3.3,0,4.94-.08,2.24-1.36,3.61-3.6,3.64-5.28.07-10.57.07-15.86,0-2.27-.03-3.5-1.38-3.55-3.66-.04-1.72-.04-3.43,0-5.15.05-2.41,1.3-3.68,3.68-3.7,2.68-.03,5.35,0,8.03,0Z"/>
      <path class="cls-1" d="M175.29,76.85c3.43,0,6.86.02,10.29,0,1.18,0,2.04.21,2.01,1.65-.03,1.44-.94,1.62-2.09,1.62-6.86-.01-13.72,0-20.58,0-1.11,0-2.06-.1-2.1-1.59-.04-1.63.98-1.69,2.18-1.68,3.43.02,6.86,0,10.29,0Z"/>
    </g>
  </g>
</svg>